<?xml version="1.0" ?><!DOCTYPE svg  PUBLIC '-//W3C//DTD SVG 1.1//EN'  'http://www.w3.org/Graphics/SVG/1.1/DTD/svg11.dtd'><svg enable-background="new -29.667 -122 1024 1024" height="1024px" version="1.1" viewBox="-29.667 -122 1024 1024" width="1024px" xml:space="preserve" xmlns="http://www.w3.org/2000/svg" xmlns:xlink="http://www.w3.org/1999/xlink"><defs/><path d="M913.667,608.667c0,13.255-10.745,24-24,24H24c-13.255,0-24-10.745-24-24V24C0,10.745,10.745,0,24,0h865.667  c13.255,0,24,10.745,24,24V608.667z" fill="#010101"/><rect fill="#7F7F7F" height="4.266" width="307.75" x="302.333" y="727.367"/><path d="M353,632c0,0-1.333,42.666-9,74.666c0,0-2.5,11.667-8.667,12.167c0,0-25.667,3.166-34.5,6.5v3.167h311.833  v-3c0,0-12.834-4.167-37-7.167c0,0-3.834-0.166-5.5-7.166c0,0-8.583-42.167-10.583-78.917L353,632z" fill="#C8CCCF"/><path d="M353.833,632.25c0,0-2.05,21.079-2.649,27.19h210.821c0,0-2.672-23.94-2.422-27.19H353.833z" fill="#A5A8AD"/><path d="M335.333,718.833c0,0,4.5-1.256,6.25-9.333H571.33c0,0,0.42,6.819,4.337,8.256L335.333,718.833z" fill="#A5A8AD"/><path d="M191.667,769.667c0,0,2,2.168,7,2.334L705,772.167c0,0,3.166-0.335,6.833-2.501H191.667z" fill="#7F7F7F"/><path d="M214.667,731.632h476L714,761.667c0,0,4.334,2.334-8.5,2.334H202.333c0,0-14.667,0.333-13.167-1.667  L214.667,731.632z" fill="#ACB1B7"/><path d="M189.667,762.333v6.167c0,0,3.833,2,8.333,2l510,0.167c0,0,6.41-0.666,6.705-2.5v-5.146  c0,0-2.039,0.688-6.705,1H197.333C197.333,764.021,190.5,764.5,189.667,762.333z" fill="#C8CCCF"/><rect fill="#524D61" height="480.333" width="847" x="33.667" y="33.667"/><path d="M913.667,611.793c0,11.896-10.745,21.54-24,21.54H24c-13.255,0-24-9.644-24-21.54v-63.126h913.666V611.793z" fill="#B8BBC0"/><path d="M456.833,575.86c0,0-0.17-8.61,9.25-10.03C466.083,565.83,465.753,576.719,456.833,575.86z"/><path d="M474.664,597.33c-4.25,9.09-7.75,10.75-7.75,10.75c-2.66,1.59-6.08-1-6.08-1c-1.58-1.33-5.75-0.33-5.75-0.33  c-2.58,2.67-5,1.67-5,1.67c-4.67-1.92-8.75-11.5-8.75-11.5c-4.5-13,2.75-18.25,2.75-18.25c7-6.09,13.42,0,13.42,0  c10-7.17,15.91,1.66,15.91,1.66c-3.66,2-4.16,5.92-4.16,5.92C468.253,595.33,474.664,597.33,474.664,597.33z"/><path d="M784.333,745.5c0,0-5.5-2,10-11.5c0,0,75-32,162.5,8c0,0,16.5,11.168-3,20.334  c0,0-22.334,13.168-73.167,4.167c0,0-49.833-5.501-58.833-6.501C821.833,760,787.833,760,784.333,745.5z" fill="#DCE0E3"/><path d="M832.333,731.632c0,0,59.5-13.633,108.5,2.367c0,0,44.833,14.793,9,28.334c0,0-51.5,6.666-80.5-9.834  C869.333,752.5,842.333,732.265,832.333,731.632z" fill="#F7F8FA"/><path d="M784.333,745.5c0,0,25.5-29.5,80,9c0,0,41.5,18.668,89.5,7.834c0,0-15.334,13.668-73.167,4.167  c0,0-46.333-5.001-65.833-6.001C814.833,760.5,788.833,759.5,784.333,745.5z" fill="#717479"/></svg>